<!DOCTYPE svg PUBLIC "-//W3C//DTD SVG 1.1//EN" "http://www.w3.org/Graphics/SVG/1.1/DTD/svg11.dtd">
<!-- Uploaded to: SVG Repo, www.svgrepo.com, Transformed by: SVG Repo Mixer Tools -->
<svg fill="#ffffff" width="800px" height="800px" viewBox="0 0 24 24" xmlns="http://www.w3.org/2000/svg">
<g id="SVGRepo_bgCarrier" stroke-width="0"/>
<g id="SVGRepo_tracerCarrier" stroke-linecap="round" stroke-linejoin="round"/>
<g id="SVGRepo_iconCarrier"> <circle cx="16.5" cy="18.5" r="1.5"/> <circle cx="9.5" cy="18.5" r="1.5"/> <path d="M18 16H8a1 1 0 0 1-.958-.713L4.256 6H3a1 1 0 0 1 0-2h2a1 1 0 0 1 .958.713L6.344 6H21a1 1 0 0 1 .937 1.352l-3 8A1 1 0 0 1 18 16zm-9.256-2h8.563l2.25-6H6.944z"/> </g>
</svg>